<mxfile host="app.diagrams.net" modified="2022-07-18T02:03:31.953Z" agent="5.0 (Macintosh; Intel Mac OS X 10_15_7) AppleWebKit/537.36 (KHTML, like Gecko) Chrome/103.0.0.0 Safari/537.36" etag="Pd4h_MHTF0XJihIrm7lK" version="20.1.1" type="github">
  <diagram id="3228e29e-7158-1315-38df-8450db1d8a1d" name="Page-1">
    <mxGraphModel dx="1298" dy="699" grid="0" gridSize="10" guides="1" tooltips="1" connect="1" arrows="1" fold="1" page="1" pageScale="1" pageWidth="600" pageHeight="200" background="#EFF1F3" math="0" shadow="0">
      <root>
        <mxCell id="0" />
        <mxCell id="1" parent="0" />
        <mxCell id="aMB2SkQLuwcF9kNnRCJI-1" value="&lt;font style=&quot;font-size: 30px;&quot;&gt;消息体&lt;/font&gt;" style="rounded=1;whiteSpace=wrap;html=1;strokeWidth=5;fontSize=30;strokeColor=#67AB9F;fillColor=#67AB9F;" parent="1" vertex="1">
          <mxGeometry x="301" y="70" width="147.5" height="60" as="geometry" />
        </mxCell>
        <mxCell id="aMB2SkQLuwcF9kNnRCJI-2" value="消息头" style="rounded=1;whiteSpace=wrap;html=1;strokeWidth=5;fillColor=#FDD276;strokeColor=#FDD276;fontSize=30;" parent="1" vertex="1">
          <mxGeometry x="151" y="70" width="145.5" height="60" as="geometry" />
        </mxCell>
      </root>
    </mxGraphModel>
  </diagram>
</mxfile>
